# File created by Blade
# Date/Time:  Thu Sep 25 18:39:44 2014
# Frame Rate: 120.000 fps
#------------------------------------------------------
:FULLY-SPECIFIED
:DEGREES
2446
root -1.225644 33.040635 -3.436110 4.715493 4.045956 -1.009602
Spine -11.854539 5.880417 -1.110537
Head -13.794176 -20.437347 20.623247
LeftShoulder 0.286959 22.787797 13.582194
LeftArm 44.676036 13.832904 -36.527679
LeftForeArm -6.575978 0.000000 60.259990
LeftHand -28.173633 -0.000000 -8.730315
LeftHandThumb1 -26.253704 0.000000 33.147579
RightShoulder -12.126012 16.311753 -28.718937
RightArm 35.740481 -32.212692 58.271315
RightForeArm -11.787860 0.000000 92.060488
RightHand -7.144982 -0.000000 10.886676
RightHandThumb1 -24.326973 -0.000000 -32.862282
LeftUpLeg -0.464665 6.335429 2.579917
LeftLeg -0.183206 -0.000000 0.000000
LeftFoot -8.736223 0.962621 -10.393098
LeftToeBase 10.091927 -0.000000 -0.000000
RightUpLeg -1.135218 -7.508005 0.742427
RightLeg 1.979031 -0.000000 -0.000000
RightFoot -7.719596 -1.749007 -0.400588
RightToeBase -0.376337 -0.000000 0.000000
2447
root -1.226290 33.042016 -3.443912 4.836333 3.920065 -1.038048
Spine -11.764157 5.907070 -1.132624
Head -14.222037 -20.231443 20.663734
LeftShoulder -0.339997 23.123966 13.645424
LeftArm 43.956882 12.884357 -36.265213
LeftForeArm -4.931629 -0.000000 59.855574
LeftHand -28.604729 -0.000000 -8.293022
LeftHandThumb1 -26.253704 0.000000 33.147579
RightShoulder -12.437691 15.382732 -28.268683
RightArm 34.574067 -31.797125 57.134499
RightForeArm -12.678220 -0.000000 91.488743
RightHand -7.294054 -0.000000 11.134458
RightHandThumb1 -24.326973 -0.000000 -32.862282
LeftUpLeg -0.574699 6.410019 2.585486
LeftLeg -0.202215 -0.000000 0.000000
LeftFoot -8.739521 1.026529 -10.391450
LeftToeBase 10.114122 -0.000000 -0.000000
RightUpLeg -1.253091 -7.528077 0.776880
RightLeg 1.909391 -0.000000 -0.000000
RightFoot -7.631480 -1.582334 -0.400389
RightToeBase -0.480943 -0.000000 0.000000
2448
root -1.226036 33.043000 -3.451654 4.994787 3.809581 -1.060048
Spine -11.669817 6.079133 -1.197206
Head -14.894655 -20.192927 20.776157
LeftShoulder -0.899730 23.368556 13.773345
LeftArm 43.316305 11.894293 -36.053902
LeftForeArm -3.153787 -0.000000 59.430287
LeftHand -28.729710 -0.000000 -8.482082
LeftHandThumb1 -26.253704 0.000000 33.147579
RightShoulder -12.950893 14.547715 -27.902531
RightArm 33.213380 -31.374359 56.119773
RightForeArm -13.312239 0.000000 90.989037
RightHand -7.520128 -0.000000 11.271639
RightHandThumb1 -24.326973 -0.000000 -32.862282
LeftUpLeg -0.722348 6.465959 2.577821
LeftLeg -0.224763 -0.000000 0.000000
LeftFoot -8.739906 1.093283 -10.418383
LeftToeBase 10.120067 -0.000000 -0.000000
RightUpLeg -1.390688 -7.507688 0.811569
RightLeg 1.806967 -0.000000 -0.000000
RightFoot -7.552128 -1.493976 -0.411141
RightToeBase -0.471820 -0.000000 0.000000
2449
root -1.227803 33.043813 -3.459133 5.149629 3.710303 -1.092760
Spine -11.596415 6.161492 -1.224971
Head -15.420894 -20.041769 20.791316
LeftShoulder -1.486912 23.510583 13.881954
LeftArm 42.569495 10.981293 -35.848754
LeftForeArm -1.058699 -0.000000 59.067504
LeftHand -29.013585 -0.000000 -8.178691
LeftHandThumb1 -26.253704 0.000000 33.147579
RightShoulder -13.295739 14.084864 -27.669455
RightArm 31.463848 -31.068688 55.486069
RightForeArm -13.867320 0.000000 90.394698
RightHand -7.735077 0.000000 11.557217
RightHandThumb1 -24.326973 -0.000000 -32.862282
LeftUpLeg -0.867472 6.524100 2.588122
LeftLeg -0.248537 -0.000000 0.000000
LeftFoot -8.747074 1.138251 -10.429102
LeftToeBase 10.132962 -0.000000 -0.000000
RightUpLeg -1.530131 -7.483741 0.854770
RightLeg 1.718947 -0.000000 -0.000000
RightFoot -7.469535 -1.367458 -0.353167
RightToeBase -0.494400 -0.000000 0.000000
2450
root -1.228529 33.044527 -3.466434 5.296011 3.632837 -1.121885
Spine -11.510585 6.254938 -1.256239
Head -15.937607 -19.899783 20.819470
LeftShoulder -2.023016 23.731985 14.028030
LeftArm 41.888301 9.923724 -35.683743
LeftForeArm 1.108389 0.000000 58.666404
LeftHand -28.729223 -0.000000 -8.602086
LeftHandThumb1 -26.253704 0.000000 33.147579
RightShoulder -13.606905 13.772405 -27.525984
RightArm 29.495642 -30.792042 54.967696
RightForeArm -14.063237 -0.000000 89.831711
RightHand -7.968882 -0.000000 11.800037
RightHandThumb1 -24.326973 -0.000000 -32.862282
LeftUpLeg -1.008691 6.582646 2.593035
LeftLeg -0.267741 -0.000000 0.000000
LeftFoot -8.749106 1.163859 -10.453910
LeftToeBase 10.162228 -0.000000 -0.000000
RightUpLeg -1.656364 -7.457116 0.894081
RightLeg 1.629538 -0.000000 -0.000000
RightFoot -7.396164 -1.281955 -0.328540
RightToeBase -0.486714 -0.000000 0.000000
2451
root -1.229549 33.044850 -3.469001 5.452588 3.521817 -1.150542
Spine -11.433066 6.395931 -1.290965
Head -16.523840 -19.761152 20.835300
LeftShoulder -2.658038 23.980000 14.128008
LeftArm 41.360492 8.858002 -35.418467
LeftForeArm 3.067181 -0.000000 58.258532
LeftHand -28.773853 -0.000000 -8.530659
LeftHandThumb1 -26.253704 0.000000 33.147579
RightShoulder -13.982936 13.234679 -27.398288
RightArm 27.757745 -30.359835 54.440535
RightForeArm -14.139995 -0.000000 89.241367
RightHand -8.336595 0.000000 12.045794
RightHandThumb1 -24.326973 -0.000000 -32.862282
LeftUpLeg -1.128657 6.695052 2.597286
LeftLeg -0.328868 -0.000000 0.000000
LeftFoot -8.722700 1.170519 -10.439381
LeftToeBase 10.135255 -0.000000 -0.000000
RightUpLeg -1.787143 -7.449070 0.933695
RightLeg 1.540712 -0.000000 -0.000000
RightFoot -7.330249 -1.178194 -0.319256
RightToeBase -0.474590 -0.000000 0.000000
2452
root -1.227810 33.045527 -3.478567 5.616062 3.529716 -1.167257
Spine -11.342421 6.434882 -1.274199
Head -17.065868 -19.615808 20.682290
LeftShoulder -3.239760 24.487223 14.156314
LeftArm 40.961674 7.538379 -35.066022
LeftForeArm 4.490789 -0.000000 57.851228
LeftHand -28.903258 -0.000000 -8.366351
LeftHandThumb1 -26.253704 0.000000 33.147579
RightShoulder -14.300007 12.804950 -27.273015
RightArm 25.916358 -29.830463 53.988182
RightForeArm -14.044722 -0.000000 88.641420
RightHand -8.601734 0.000000 12.121166
RightHandThumb1 -24.326973 -0.000000 -32.862282
LeftUpLeg -1.309970 6.671728 2.589165
LeftLeg -0.331091 -0.000000 0.000000
LeftFoot -8.730133 1.213046 -10.406345
LeftToeBase 10.156990 -0.000000 -0.000000
RightUpLeg -1.931300 -7.515815 0.970300
RightLeg 1.458203 -0.000000 -0.000000
RightFoot -7.265383 -1.098671 -0.328098
RightToeBase -0.470984 -0.000000 0.000000
